<svg version="1.1" id="Layer_1" xmlns="http://www.w3.org/2000/svg" xmlns:xlink="http://www.w3.org/1999/xlink" x="0px" y="0px"
	 width="100%" viewBox="0 0 1024 1024" enable-background="new 0 0 1024 1024" xml:space="preserve">
<path fill="#000000" opacity="1.000000" stroke="none" 
	d="
M650.771790,572.701660 
	C642.254089,590.522400 633.909058,608.010559 625.564026,625.498779 
	C624.984863,625.472961 624.405640,625.447144 623.826416,625.421387 
	C612.578857,605.735779 604.524048,584.449707 593.878723,563.052063 
	C591.189819,575.467834 588.788818,586.760376 586.289856,598.031250 
	C584.056885,608.102661 581.751465,618.158447 579.405212,628.204163 
	C578.450256,632.292908 575.764221,633.325623 570.505371,632.041809 
	C566.040405,630.951904 568.135498,628.012634 568.740417,625.717346 
	C575.606262,599.666077 581.551392,573.394348 587.664124,547.162598 
	C588.041565,545.542725 588.276611,543.879028 588.786987,542.303528 
	C589.372864,540.495117 589.129639,537.758057 591.540344,537.464478 
	C593.951233,537.170837 594.554688,539.745789 595.367004,541.494995 
	C604.205933,560.528076 612.998840,579.582642 621.800903,598.632935 
	C622.705139,600.589966 623.588074,602.556885 624.878418,605.392944 
	C626.592896,601.652039 627.975281,598.553589 629.424683,595.486694 
	C637.681213,578.016541 645.936157,560.545532 654.248413,543.101807 
	C655.061829,541.394714 655.535950,538.795654 658.085632,539.142578 
	C660.601196,539.484802 660.396240,542.175293 660.820190,543.980530 
	C667.358887,571.825806 673.814026,599.690735 680.282349,627.552612 
	C681.988342,634.900940 674.947693,632.447083 671.671570,636.394531 
	C665.380798,611.405396 661.412415,587.382690 655.751221,562.499573 
	C653.801453,566.503052 652.372986,569.436096 650.771790,572.701660 
z"/>
<path fill="#000000" opacity="1.000000" stroke="none" 
	d="
M391.255402,629.513184 
	C377.981171,633.296692 364.886536,632.745178 351.735870,631.719055 
	C347.559143,631.393250 346.557648,629.392761 346.749969,625.541016 
	C347.821503,604.083435 347.702698,582.604065 347.587585,561.128174 
	C347.566223,557.138916 347.259460,553.151428 347.102966,549.162476 
	C347.007721,546.734070 347.556976,544.854614 350.572174,544.854980 
	C364.707703,544.856628 378.890991,544.281433 392.758575,547.872925 
	C415.348450,553.723328 425.460541,569.637756 421.958221,593.422119 
	C419.264282,611.716736 409.170746,623.660400 391.255402,629.513184 
M374.422729,554.209106 
	C370.444397,553.936584 366.461853,553.713318 362.489014,553.376099 
	C359.269348,553.102844 358.027435,554.484802 358.043457,557.698303 
	C358.143097,577.655334 358.175232,597.612915 358.131653,617.570190 
	C358.124634,620.788940 359.471130,621.992126 362.590668,622.044617 
	C371.099884,622.187622 379.565643,621.962708 387.763977,619.390686 
	C399.812592,615.610718 407.904388,608.049622 410.294464,595.238403 
	C411.093262,590.956909 410.815491,586.617981 410.702240,582.303833 
	C410.460419,573.095520 406.296082,566.083252 398.454071,561.327698 
	C391.363464,557.027771 383.621368,554.718262 374.422729,554.209106 
z"/>
<path fill="#000000" opacity="1.000000" stroke="none" 
	d="
M530.656250,404.141418 
	C540.799133,409.580505 541.744690,426.885437 528.881409,435.399109 
	C524.818054,438.088440 519.900513,438.814789 515.674194,441.519531 
	C516.318726,444.397095 518.394897,446.186066 520.069275,448.125916 
	C529.859070,459.467773 539.707642,470.759766 549.636108,481.980316 
	C551.762634,484.383484 553.450378,486.451141 549.648376,488.673767 
	C546.798889,490.339569 544.779663,495.151764 540.544495,489.655640 
	C528.859985,474.492432 516.728760,459.672760 504.715973,444.764130 
	C503.309265,443.018341 502.122681,440.805756 499.425415,440.584991 
	C497.597382,442.001465 498.285645,443.990387 498.273010,445.705109 
	C498.195526,456.195679 498.226990,466.687042 498.224640,477.178162 
	C498.222778,485.490814 498.224304,485.496368 490.010193,485.367035 
	C489.194458,485.354218 488.380615,485.220001 486.893799,485.077881 
	C486.893799,478.778870 486.549530,472.507111 486.956787,466.284515 
	C488.307190,445.650909 487.399536,425.004608 487.619446,404.366394 
	C487.688477,397.887512 487.612183,397.558533 494.259430,398.067047 
	C503.355713,398.762939 512.597839,397.922180 521.533386,400.517975 
	C524.579590,401.402832 527.594910,402.307678 530.656250,404.141418 
M502.219757,405.872559 
	C499.475128,405.309082 498.233582,406.278625 498.279633,409.225311 
	C498.391235,416.368286 498.397461,423.515656 498.273743,430.658295 
	C498.221802,433.657013 499.333435,434.997925 502.367493,434.683105 
	C508.163635,434.081665 513.917480,433.256561 519.227966,430.690491 
	C523.730652,428.514740 526.749939,425.116974 526.622253,419.838989 
	C526.497009,414.662842 523.583496,411.313293 519.063904,409.029175 
	C513.989868,406.464874 508.516571,406.323364 502.219757,405.872559 
z"/>
<path fill="#000000" opacity="1.000000" stroke="none" 
	d="
M395.559143,441.611938 
	C403.342804,425.640381 410.972412,410.008881 418.489563,394.607727 
	C421.903473,394.999390 422.276276,397.268036 423.134644,398.923248 
	C437.380920,426.394653 451.229095,454.065674 464.581818,481.983307 
	C466.698822,486.409546 463.365265,491.925293 458.486694,491.997437 
	C456.077484,492.033081 455.737640,489.806244 454.999817,488.273071 
	C449.444336,476.729370 443.885223,465.185059 438.557587,453.535583 
	C437.017090,450.167175 434.961639,448.895782 431.265411,449.042389 
	C423.452148,449.352325 415.616577,449.449341 407.801849,449.225677 
	C403.918457,449.114563 401.711548,450.349670 400.149017,453.973694 
	C395.934448,463.748444 391.120178,473.270447 387.087128,483.115295 
	C385.049225,488.089874 382.454437,486.155548 379.280518,485.075500 
	C375.225128,483.695496 376.517609,481.432892 377.746674,478.877625 
	C383.660645,466.582428 389.523834,454.262848 395.559143,441.611938 
M425.617462,425.786774 
	C423.667297,421.645386 421.717102,417.504028 419.412476,412.609955 
	C415.000519,422.236237 410.957855,431.056763 406.743164,440.252563 
	C415.337891,440.252563 423.183411,440.252563 432.017822,440.252563 
	C429.766876,435.169922 427.841797,430.823029 425.617462,425.786774 
z"/>
<path fill="#000000" opacity="1.000000" stroke="none" 
	d="
M652.551941,407.449890 
	C652.377502,405.832306 652.252075,404.672058 652.082520,403.518250 
	C651.474915,399.384705 652.730347,397.391052 657.420227,397.619049 
	C669.230408,398.193298 681.058350,398.488068 692.882568,398.645935 
	C697.132629,398.702698 697.273376,401.131653 697.127197,404.241119 
	C696.964233,407.705688 695.021973,408.218170 692.043945,407.864777 
	C683.952271,406.904510 675.835754,406.155823 667.735962,405.261292 
	C664.533325,404.907562 663.202209,406.101288 663.267273,409.433136 
	C663.416931,417.096497 663.406250,424.766693 663.262573,432.430389 
	C663.201904,435.665070 664.387878,436.980164 667.651306,436.773895 
	C674.962830,436.311676 682.290710,436.099396 689.598511,435.592773 
	C692.521484,435.390106 694.053772,436.166931 693.931030,439.334961 
	C693.826416,442.033417 693.579956,444.272125 689.977417,444.365662 
	C682.819458,444.551392 675.669312,445.172363 668.512939,445.228577 
	C664.789429,445.257812 663.061951,446.151215 663.187012,450.295135 
	C663.452271,459.082520 663.267944,467.883453 663.267944,477.504425 
	C676.039551,475.687714 688.121582,473.969086 700.106201,472.264313 
	C702.980225,480.155640 701.783203,481.814850 694.175476,482.336853 
	C682.224487,483.156891 670.305176,484.443085 658.353271,485.245880 
	C652.140869,485.663208 651.769226,485.224487 652.067688,478.885345 
	C653.181335,455.231140 652.521729,431.568909 652.551941,407.449890 
z"/>
<path fill="#000000" opacity="1.000000" stroke="none" 
	d="
M515.067505,591.968628 
	C511.409332,591.867737 510.274994,593.443359 510.352936,596.599426 
	C510.513367,603.092163 510.380463,609.591736 510.427887,616.088013 
	C510.475677,622.636292 511.413727,623.409485 517.748718,622.413940 
	C526.618408,621.020142 535.493896,619.663757 544.359436,618.244446 
	C546.580078,617.888977 549.050842,617.241760 549.110779,620.600525 
	C549.158447,623.277222 550.734009,627.025452 545.849243,627.478760 
	C535.749512,628.416016 525.648438,629.337708 515.548279,630.270569 
	C512.069519,630.591858 508.578705,630.825745 505.117584,631.282715 
	C500.986877,631.828003 499.579865,630.222534 499.623566,626.034851 
	C499.814758,607.712952 499.737335,589.388123 499.751984,571.064392 
	C499.758789,562.585205 499.753174,554.106079 499.753174,545.686035 
	C501.399902,544.135559 503.329407,544.677490 505.076538,544.718750 
	C516.726501,544.993958 528.372620,545.488770 540.023499,545.638794 
	C544.282593,545.693604 544.359619,548.102051 544.256592,551.210388 
	C544.136902,554.821838 542.003906,555.091370 539.158142,554.794189 
	C531.221375,553.965088 523.260864,553.351257 515.335388,552.430969 
	C511.598267,551.997009 510.236725,553.246338 510.343597,557.036743 
	C510.550049,564.360413 510.523163,571.696838 510.353851,579.022461 
	C510.264557,582.885864 511.776672,583.858154 515.492920,583.448242 
	C522.432922,582.682800 529.428711,582.434937 536.394348,581.884766 
	C539.392700,581.648010 541.131470,582.448547 541.219116,585.876831 
	C541.299866,589.034729 540.595154,591.007019 536.963806,591.100891 
	C529.808044,591.285767 522.656738,591.643860 515.067505,591.968628 
z"/>
<path fill="#000000" opacity="1.000000" stroke="none" 
	d="
M353.650208,475.678589 
	C357.573395,475.752655 360.899933,474.024933 364.377350,474.701172 
	C366.055969,482.428070 364.419617,484.927551 357.091858,485.159668 
	C343.930420,485.576508 330.766327,485.720001 318.036957,481.428162 
	C304.212372,476.767120 296.104004,466.036957 295.746918,451.529663 
	C295.620148,446.379395 295.618591,441.180939 296.157379,436.067413 
	C298.252014,416.187775 311.036743,405.637207 328.768005,399.877197 
	C337.491028,397.043518 346.512238,395.387329 355.778809,395.675720 
	C358.880066,395.772217 362.332428,394.965149 362.140076,400.165955 
	C361.969360,404.780884 359.700928,405.589508 355.691040,405.260132 
	C345.565277,404.428314 335.778778,405.785309 326.544678,410.370514 
	C308.512695,419.324371 300.853241,443.866882 310.990112,461.403839 
	C317.188324,472.126831 327.939087,474.673462 339.199646,475.600586 
	C343.833649,475.982117 348.523956,475.679840 353.650208,475.678589 
z"/>
<path fill="#000000" opacity="1.000000" stroke="none" 
	d="
M624.253052,413.246674 
	C626.976990,423.213745 623.629333,432.611847 615.603455,438.237671 
	C608.436523,443.261353 600.276306,445.712738 591.721741,446.125427 
	C586.887024,446.358673 585.862610,448.185455 585.990356,452.477661 
	C586.258118,461.469971 585.880859,470.485107 586.274597,479.468719 
	C586.512146,484.887817 583.650146,485.212402 579.472717,485.400757 
	C574.562073,485.622162 574.579590,482.811432 574.735352,479.375702 
	C575.640686,459.397552 575.837952,439.406921 575.591797,419.412750 
	C575.520020,413.586395 575.173157,407.763794 574.999023,401.938110 
	C574.933838,399.757751 575.395691,397.772949 578.174988,397.897552 
	C589.953918,398.425751 601.883179,397.948395 613.076172,402.699707 
	C617.948120,404.767792 622.255615,407.499207 624.253052,413.246674 
M602.164978,408.264526 
	C597.095642,406.771118 591.979614,405.685211 586.151367,406.202209 
	C586.151367,415.925659 586.137451,425.374878 586.160950,434.824005 
	C586.166992,437.251373 587.707581,437.815308 589.831909,437.789856 
	C594.398865,437.735046 598.689148,436.557220 602.900757,434.904755 
	C609.148193,432.453400 613.460266,428.320862 613.562500,421.299408 
	C613.665283,414.234680 609.001770,410.646606 602.164978,408.264526 
z"/>
<path fill="#000000" opacity="1.000000" stroke="none" 
	d="
M451.697296,556.045654 
	C451.683929,553.559998 451.872742,551.539307 451.620239,549.575256 
	C451.127777,545.745056 452.665070,544.250305 456.493561,544.070801 
	C462.811646,543.774658 463.467804,544.103210 463.213837,550.452454 
	C462.276672,573.880066 462.023163,597.299744 463.114288,620.734619 
	C463.603729,631.246887 463.351105,631.271057 451.700012,629.952698 
	C451.700012,605.560364 451.700012,581.048279 451.697296,556.045654 
z"/>
<path fill="#000000" opacity="1.000000" stroke="none" 
	d="
M711.242065,625.901367 
	C709.565369,631.556396 706.447632,634.008789 702.471069,632.945984 
	C698.651184,631.924988 696.386108,629.387085 696.852051,625.308228 
	C697.297485,621.409180 699.597351,618.909668 703.711121,618.744934 
	C708.301880,618.560913 710.811829,620.924500 711.242065,625.901367 
z"/>
</svg>